<svg width="57" height="57" viewBox="0 0 57 57" fill="none" xmlns="http://www.w3.org/2000/svg">
<g clip-path="url(#clip0_121_646)">
<mask id="mask0_121_646" style="mask-type:luminance" maskUnits="userSpaceOnUse" x="0" y="0" width="57" height="57">
<path d="M56.5 0.200195H0.5V56.2002H56.5V0.200195Z" fill="white"/>
</mask>
<g mask="url(#mask0_121_646)">
<path d="M56.5 29.9822L47.8455 36.2186L51.1545 46.2731L40.4636 46.1458L37.1545 56.2004L28.5 49.964L19.8455 56.2004L16.5364 46.1458L5.84545 46.2731L9.15455 36.2186L0.5 29.9822L9.15455 23.8731L5.84545 13.8186H16.5364L19.8455 3.764L28.5 9.87309L37.1545 3.63672L40.4636 13.6913H51.1545L47.8455 23.7458L56.5 29.9822Z" fill="#634C9F"/>
<path d="M43.136 18.1461C46.6996 15.9824 50.0087 13.1824 52.2996 9.87335C53.4451 8.21881 54.4633 6.30972 54.2087 4.40063C53.9542 2.61881 52.6814 1.09154 50.8996 0.836991C50.0087 0.582445 49.1178 0.709718 48.3542 0.964264C47.5905 1.09154 46.8269 1.34608 46.3178 1.7279C44.7905 2.74608 44.1542 4.78245 43.6451 6.56426C42.7542 9.87335 41.9905 12.9279 41.4814 16.237" stroke="#1D1D1B" stroke-width="0.5714" stroke-miterlimit="10" stroke-linecap="round" stroke-linejoin="round"/>
<path d="M38.9366 45.2555L25.0638 44.4917L19.082 32.4009L35.6275 7.70996L55.482 20.5646L38.9366 45.2555Z" fill="#FFB709"/>
<path d="M43.1367 18.1461C46.7004 15.9824 50.0094 13.1824 52.3004 9.87335C53.4458 8.21881 54.464 6.30972 54.2094 4.40063C53.9549 2.61881 52.6822 1.09154 50.9004 0.836991C50.0094 0.582445 49.1185 0.709718 48.3549 0.964264C47.5913 1.09154 46.8276 1.34608 46.3185 1.7279C44.7913 2.74608 44.1549 4.78245 43.6458 6.56426C43.3913 7.20063 43.264 7.70972 43.1367 8.47335" stroke="#1D1D1B" stroke-width="0.5714" stroke-miterlimit="10" stroke-linecap="round" stroke-linejoin="round"/>
<path d="M43.0087 26.6729L27.4814 29.0911L28.3724 30.1093L43.8996 27.6911L43.0087 26.6729Z" fill="#1D1D1B"/>
<path d="M38.0453 31.001C37.7907 30.8737 37.6635 30.8737 37.5362 30.8737C37.0271 30.7465 36.518 30.7465 36.0089 30.8737C35.4998 31.1283 34.8635 31.3828 34.3544 31.7646C33.8453 32.2737 33.4635 32.7828 33.2089 33.2919C32.9544 33.801 32.9544 34.3101 33.0816 34.8192C33.2089 35.3283 33.4635 35.8374 33.8453 36.2192L33.9726 36.3465C34.6089 36.9828 35.2453 37.2374 36.0089 37.2374C36.7726 37.2374 37.6635 36.8556 38.4271 36.2192C39.1907 35.4556 39.5726 34.6919 39.6998 33.9283C39.8271 33.1646 39.4453 32.401 38.9362 31.7646C38.6816 31.3828 38.2998 31.2556 38.0453 31.001ZM35.118 36.0919C34.9907 35.9646 34.7362 35.8374 34.6089 35.7101C34.2271 35.3283 34.0998 34.8192 34.2271 34.1828C34.3544 33.6737 34.6089 33.1646 35.2453 32.5283C35.8816 32.0192 36.3907 31.6374 36.8998 31.6374C37.0271 31.6374 37.0271 31.6374 37.1544 31.6374C37.6635 31.6374 37.918 31.7646 38.2998 32.1465C38.6816 32.5283 38.8089 33.0374 38.6816 33.6737C38.5544 34.1828 38.1726 34.6919 37.6635 35.201C37.1544 35.7101 36.518 36.0919 36.0089 36.0919C35.7544 36.2192 35.3726 36.2192 35.118 36.0919Z" fill="#1D1D1B"/>
<path d="M32.445 25.2735C33.0814 25.9099 33.7178 26.1644 34.4814 26.1644C34.4814 26.1644 34.4814 26.1644 34.6087 26.1644C35.3723 26.1644 36.2632 25.7826 37.0268 25.1462C37.7905 24.3826 38.1723 23.619 38.2996 22.8553C38.4268 22.0917 38.045 21.3281 37.5359 20.6917C37.2814 20.3099 36.8996 20.1826 36.645 20.0553C36.2632 19.8008 35.8814 19.8008 35.3723 19.8008C34.6087 19.8008 33.7178 20.1826 32.9541 20.819C32.1905 21.5826 31.8087 22.3462 31.6814 23.1099C31.4268 23.8735 31.6814 24.5099 32.445 25.2735ZM35.4996 20.6917C35.8814 20.6917 36.2632 20.9462 36.7723 21.2008C37.1541 21.5826 37.2814 22.0917 37.1541 22.7281C37.0268 23.2372 36.645 23.7462 36.1359 24.3826C35.4996 24.8917 34.9905 25.2735 34.4814 25.2735C34.0996 25.4008 33.845 25.2735 33.5905 25.1462C33.3359 25.019 33.2087 24.8917 33.0814 24.7644C32.6996 24.3826 32.5723 23.8735 32.6996 23.2372C32.8268 22.7281 33.2087 22.219 33.7178 21.5826C34.3541 21.0735 34.8632 20.6917 35.3723 20.6917C35.245 20.6917 35.3723 20.6917 35.4996 20.6917Z" fill="#1D1D1B"/>
</g>
</g>
<defs>
<clipPath id="clip0_121_646">
<rect width="57" height="57" fill="white"/>
</clipPath>
</defs>
</svg>
