<svg width="18" height="18" viewBox="0 0 18 18" fill="none" xmlns="http://www.w3.org/2000/svg">
<g clip-path="url(#clip0_68_134)">
<path d="M6.25416 0.727594H2.51016C2.12616 0.727594 1.80516 0.847594 1.54716 1.08759C1.28916 1.32759 1.16016 1.63359 1.16016 2.00559V5.74959C1.16016 6.12159 1.29216 6.43959 1.55616 6.70359C1.82016 6.96759 2.13816 7.09959 2.51016 7.09959H6.25416C6.63816 7.09959 6.95916 6.96759 7.21716 6.70359C7.47516 6.43959 7.60416 6.12159 7.60416 5.74959V2.00559C7.60416 1.63359 7.47516 1.32759 7.21716 1.08759C6.95916 0.847594 6.63816 0.727594 6.25416 0.727594ZM6.39816 5.74959C6.39816 5.78559 6.38316 5.81859 6.35316 5.84859C6.32316 5.87859 6.29016 5.89359 6.25416 5.89359H2.51016C2.47416 5.92959 2.43816 5.92659 2.40216 5.88459C2.36616 5.84259 2.34816 5.79759 2.34816 5.74959V2.00559C2.34816 1.95759 2.36616 1.91859 2.40216 1.88859C2.43816 1.85859 2.47416 1.84359 2.51016 1.84359H6.25416C6.29016 1.84359 6.32316 1.85859 6.35316 1.88859C6.38316 1.91859 6.39816 1.95759 6.39816 2.00559V5.74959ZM6.25416 8.97159H2.51016C2.13816 8.97159 1.82016 9.10059 1.55616 9.35859C1.29216 9.61659 1.16016 9.93759 1.16016 10.3216V14.0656C1.16016 14.4496 1.29216 14.7736 1.55616 15.0376C1.82016 15.3016 2.13816 15.4336 2.51016 15.4336H6.25416C6.62616 15.4336 6.94416 15.3016 7.20816 15.0376C7.47216 14.7736 7.60416 14.4496 7.60416 14.0656V10.3216C7.60416 9.91359 7.47516 9.58659 7.21716 9.34059C6.95916 9.09459 6.63816 8.97159 6.25416 8.97159ZM6.39816 13.9936C6.39816 14.0296 6.38316 14.0656 6.35316 14.1016C6.32316 14.1376 6.29016 14.1556 6.25416 14.1556H2.51016C2.47416 14.1556 2.43816 14.1376 2.40216 14.1016C2.36616 14.0656 2.34816 14.0296 2.34816 13.9936V10.2496C2.34816 10.2136 2.36616 10.1806 2.40216 10.1506C2.43816 10.1206 2.47416 10.1056 2.51016 10.1056H6.25416C6.29016 10.1056 6.32316 10.1206 6.35316 10.1506C6.38316 10.1806 6.39816 10.2136 6.39816 10.2496V13.9936ZM9.99816 2.59959H15.2542C15.4102 2.59959 15.5482 2.54259 15.6682 2.42859C15.7882 2.31459 15.8482 2.17359 15.8482 2.00559C15.8482 1.83759 15.7912 1.70559 15.6772 1.60959C15.5632 1.51359 15.4222 1.46559 15.2542 1.46559H9.99816C9.84216 1.46559 9.70416 1.52259 9.58416 1.63659C9.46416 1.75059 9.40416 1.89759 9.40416 2.07759C9.40416 2.25759 9.46116 2.38959 9.57516 2.47359C9.68916 2.55759 9.83016 2.59959 9.99816 2.59959ZM15.2542 5.22759H9.99816C9.84216 5.22759 9.70416 5.28159 9.58416 5.38959C9.46416 5.49759 9.40416 5.64459 9.40416 5.83059C9.40416 6.01659 9.45816 6.16059 9.56616 6.26259C9.67416 6.36459 9.81816 6.41559 9.99816 6.41559H15.2542C15.4102 6.41559 15.5482 6.36159 15.6682 6.25359C15.7882 6.14559 15.8482 6.00159 15.8482 5.82159C15.8482 5.64159 15.7882 5.49759 15.6682 5.38959C15.5482 5.28159 15.4102 5.22759 15.2542 5.22759ZM15.2542 9.72759H9.99816C9.84216 9.72759 9.70416 9.78159 9.58416 9.88959C9.46416 9.99759 9.40416 10.1446 9.40416 10.3306C9.40416 10.5166 9.45816 10.6606 9.56616 10.7626C9.67416 10.8646 9.81816 10.9156 9.99816 10.9156H15.2542C15.4102 10.9156 15.5482 10.8616 15.6682 10.7536C15.7882 10.6456 15.8482 10.5016 15.8482 10.3216C15.8482 10.1416 15.7882 9.99759 15.6682 9.88959C15.5482 9.78159 15.4102 9.72759 15.2542 9.72759ZM15.2542 13.4716H9.99816C9.84216 13.4716 9.70416 13.5286 9.58416 13.6426C9.46416 13.7566 9.40416 13.9006 9.40416 14.0746C9.40416 14.2486 9.45816 14.3926 9.56616 14.5066C9.67416 14.6206 9.81816 14.6776 9.99816 14.6776H15.2542C15.4102 14.6776 15.5482 14.6206 15.6682 14.5066C15.7882 14.3926 15.8482 14.2456 15.8482 14.0656C15.8482 13.8856 15.7882 13.7416 15.6682 13.6336C15.5482 13.5256 15.4102 13.4716 15.2542 13.4716Z" fill="black"/>
</g>
<defs>
<clipPath id="clip0_68_134">
<rect width="18" height="18" fill="white" transform="matrix(1 0 0 -1 0 18)"/>
</clipPath>
</defs>
</svg>
