<svg width="18" height="18" viewBox="0 0 18 18" fill="none" xmlns="http://www.w3.org/2000/svg">
<g clip-path="url(#clip0_68_130)">
<path d="M6.89583 1H2.5625C2.11806 1 1.74653 1.13872 1.44792 1.41616C1.14931 1.69359 1 2.04733 1 2.47736V6.80539C1 7.23541 1.15278 7.60302 1.45833 7.9082C1.76389 8.21338 2.13194 8.36597 2.5625 8.36597H6.89583C7.34028 8.36597 7.71181 8.21338 8.01042 7.9082C8.30903 7.60302 8.45833 7.23541 8.45833 6.80539V2.47736C8.45833 2.04733 8.30903 1.69359 8.01042 1.41616C7.71181 1.13872 7.34028 1 6.89583 1ZM7.0625 6.80539C7.0625 6.847 7.04514 6.88515 7.01042 6.91983C6.97569 6.95451 6.9375 6.97185 6.89583 6.97185H2.5625C2.52083 7.01346 2.47917 7.01 2.4375 6.96144C2.39583 6.91289 2.375 6.86087 2.375 6.80539V2.47736C2.375 2.42187 2.39583 2.37678 2.4375 2.3421C2.47917 2.30742 2.52083 2.29008 2.5625 2.29008H6.89583C6.9375 2.29008 6.97569 2.30742 7.01042 2.3421C7.04514 2.37678 7.0625 2.42187 7.0625 2.47736V6.80539ZM16.4375 1H12.1042C11.6736 1 11.3056 1.14912 11 1.44737C10.6944 1.74561 10.5417 2.11669 10.5417 2.56059V6.88862C10.5417 7.31865 10.6944 7.68625 11 7.99143C11.3056 8.29661 11.6736 8.4492 12.1042 8.4492H16.4375C16.8819 8.4492 17.2535 8.29661 17.5521 7.99143C17.8507 7.68625 18 7.31865 18 6.88862V2.47736C18 2.04733 17.8507 1.69359 17.5521 1.41616C17.2535 1.13872 16.8819 1 16.4375 1ZM16.625 6.80539C16.625 6.847 16.6076 6.88515 16.5729 6.91983C16.5382 6.95451 16.4931 6.97185 16.4375 6.97185H12.1042C12.0625 6.97185 12.0243 6.95451 11.9896 6.91983C11.9549 6.88515 11.9375 6.847 11.9375 6.80539V2.47736C11.9375 2.42187 11.9549 2.37678 11.9896 2.3421C12.0243 2.30742 12.0625 2.29008 12.1042 2.29008H16.4375C16.4931 2.29008 16.5382 2.30742 16.5729 2.3421C16.6076 2.37678 16.625 2.42187 16.625 2.47736V6.80539ZM16.4375 10.53H12.1042C11.6736 10.53 11.3056 10.6791 11 10.9774C10.6944 11.2756 10.5417 11.6467 10.5417 12.0906V16.4186C10.5417 16.8625 10.6944 17.237 11 17.5422C11.3056 17.8474 11.6736 18 12.1042 18H16.4375C16.8681 18 17.2361 17.8474 17.5417 17.5422C17.8472 17.237 18 16.8625 18 16.4186V12.0906C18 11.6189 17.8507 11.2409 17.5521 10.9565C17.2535 10.6722 16.8819 10.53 16.4375 10.53ZM16.625 16.3354C16.625 16.377 16.6076 16.4186 16.5729 16.4602C16.5382 16.5018 16.4931 16.5226 16.4375 16.5226H12.1042C12.0625 16.5226 12.0243 16.5018 11.9896 16.4602C11.9549 16.4186 11.9375 16.377 11.9375 16.3354V12.0073C11.9375 11.9657 11.9549 11.9276 11.9896 11.8929C12.0243 11.8582 12.0625 11.8409 12.1042 11.8409H16.4375C16.4931 11.8409 16.5382 11.8582 16.5729 11.8929C16.6076 11.9276 16.625 11.9657 16.625 12.0073V16.3354ZM6.89583 10.53H2.5625C2.13194 10.53 1.76389 10.6791 1.45833 10.9774C1.15278 11.2756 1 11.6467 1 12.0906V16.4186C1 16.8625 1.15278 17.237 1.45833 17.5422C1.76389 17.8474 2.13194 18 2.5625 18H6.89583C7.32639 18 7.69444 17.8474 8 17.5422C8.30556 17.237 8.45833 16.8625 8.45833 16.4186V12.0906C8.45833 11.6189 8.30903 11.2409 8.01042 10.9565C7.71181 10.6722 7.34028 10.53 6.89583 10.53ZM7.0625 16.3354C7.0625 16.377 7.04514 16.4186 7.01042 16.4602C6.97569 16.5018 6.9375 16.5226 6.89583 16.5226H2.5625C2.52083 16.5226 2.47917 16.5018 2.4375 16.4602C2.39583 16.4186 2.375 16.377 2.375 16.3354V12.0073C2.375 11.9657 2.39583 11.9276 2.4375 11.8929C2.47917 11.8582 2.52083 11.8409 2.5625 11.8409H6.89583C6.9375 11.8409 6.97569 11.8582 7.01042 11.8929C7.04514 11.9276 7.0625 11.9657 7.0625 12.0073V16.3354Z" fill="#111827"/>
</g>
<defs>
<clipPath id="clip0_68_130">
<rect width="18" height="18" fill="white" transform="matrix(1 0 0 -1 0 18)"/>
</clipPath>
</defs>
</svg>
