<svg width="18" height="18" viewBox="0 0 18 18" fill="none" xmlns="http://www.w3.org/2000/svg">
<path d="M0.875174 5.25H2.75017V17.125C2.75017 17.2908 2.81602 17.4497 2.93323 17.5669C3.05044 17.6842 3.20941 17.75 3.37517 17.75H4.62517C4.79093 17.75 4.94991 17.6842 5.06712 17.5669C5.18433 17.4497 5.25017 17.2908 5.25017 17.125V5.25H7.12517C7.68025 5.25 7.96033 4.57656 7.56697 4.1832L4.44197 0.433203C4.32477 0.316081 4.16586 0.25029 4.00017 0.25029C3.83448 0.25029 3.67558 0.316081 3.55838 0.433203L0.433377 4.1832C0.0411895 4.57578 0.319705 5.25 0.875174 5.25ZM11.5002 7.75H16.5002C16.6659 7.75 16.8249 7.68415 16.9421 7.56694C17.0593 7.44973 17.1252 7.29076 17.1252 7.125V5.875C17.1252 5.70924 17.0593 5.55027 16.9421 5.43306C16.8249 5.31585 16.6659 5.25 16.5002 5.25H14.3127L16.7056 2.49805C16.8376 2.38076 16.9432 2.23685 17.0155 2.0758C17.0878 1.91475 17.1252 1.74021 17.1252 1.56367V0.875C17.1252 0.70924 17.0593 0.550268 16.9421 0.433058C16.8249 0.315848 16.6659 0.25 16.5002 0.25H11.5002C11.3344 0.25 11.1754 0.315848 11.0582 0.433058C10.941 0.550268 10.8752 0.70924 10.8752 0.875V2.125C10.8752 2.29076 10.941 2.44973 11.0582 2.56694C11.1754 2.68415 11.3344 2.75 11.5002 2.75H13.6877L11.2947 5.50195C11.1628 5.61924 11.0572 5.76315 10.9848 5.9242C10.9125 6.08525 10.8752 6.25979 10.8752 6.43633V7.125C10.8752 7.29076 10.941 7.44973 11.0582 7.56694C11.1754 7.68415 11.3344 7.75 11.5002 7.75ZM17.7135 16.9148L15.3982 10.6648C15.3549 10.5434 15.275 10.4384 15.1696 10.3641C15.0643 10.2898 14.9385 10.25 14.8095 10.25H13.1908C13.0619 10.25 12.9361 10.2898 12.8307 10.3641C12.7253 10.4384 12.6455 10.5434 12.6021 10.6648L10.2869 16.9148C10.2532 17.0091 10.2427 17.1101 10.2562 17.2093C10.2697 17.3086 10.3069 17.4031 10.3645 17.4849C10.4222 17.5668 10.4987 17.6336 10.5875 17.6797C10.6764 17.7258 10.7751 17.7499 10.8752 17.75H11.8451C11.9773 17.75 12.1061 17.7082 12.213 17.6304C12.3199 17.5526 12.3994 17.443 12.44 17.3172L12.6127 16.8125H15.3861L15.5584 17.3172C15.5991 17.4432 15.6788 17.5531 15.786 17.6309C15.8932 17.7087 16.0224 17.7504 16.1549 17.75H17.1252C17.2253 17.7499 17.3239 17.7258 17.4128 17.6797C17.5017 17.6336 17.5782 17.5668 17.6358 17.4849C17.6935 17.4031 17.7306 17.3086 17.7441 17.2093C17.7576 17.1101 17.7471 17.0091 17.7135 16.9148ZM13.3599 14.625L14.0002 12.75L14.6404 14.625H13.3599Z" fill="black"/>
</svg>
