<svg width="20" height="20" viewBox="0 0 20 20" fill="none" xmlns="http://www.w3.org/2000/svg">
<path d="M5.44197 1.43307C5.32477 1.31595 5.16586 1.25015 5.00017 1.25015C4.83448 1.25015 4.67558 1.31595 4.55838 1.43307L1.43338 5.18307C1.04119 5.57565 1.31971 6.24986 1.87517 6.24986H3.75017V18.1249C3.75017 18.2906 3.81602 18.4496 3.93323 18.5668C4.05044 18.684 4.20941 18.7499 4.37517 18.7499H5.62517C5.79093 18.7499 5.9499 18.684 6.06712 18.5668C6.18433 18.4496 6.25017 18.2906 6.25017 18.1249V6.24986H8.12517C8.68025 6.24986 8.96033 5.57643 8.56697 5.18307L5.44197 1.43307ZM16.8752 16.2499H16.2502V11.8749C16.2502 11.7091 16.1843 11.5501 16.0671 11.4329C15.9499 11.3157 15.7909 11.2499 15.6252 11.2499H13.7502C13.6343 11.25 13.5207 11.2823 13.4222 11.3432C13.3236 11.4041 13.2439 11.4912 13.192 11.5948L12.567 12.8448C12.5192 12.94 12.4966 13.0459 12.5013 13.1523C12.506 13.2588 12.5378 13.3623 12.5937 13.453C12.6497 13.5436 12.7279 13.6185 12.8209 13.6705C12.9139 13.7225 13.0186 13.7498 13.1252 13.7499H13.7502V16.2499H13.1252C12.9594 16.2499 12.8004 16.3157 12.6832 16.4329C12.566 16.5501 12.5002 16.7091 12.5002 16.8749V18.1249C12.5002 18.2906 12.566 18.4496 12.6832 18.5668C12.8004 18.684 12.9594 18.7499 13.1252 18.7499H16.8752C17.0409 18.7499 17.1999 18.684 17.3171 18.5668C17.4343 18.4496 17.5002 18.2906 17.5002 18.1249V16.8749C17.5002 16.7091 17.4343 16.5501 17.3171 16.4329C17.1999 16.3157 17.0409 16.2499 16.8752 16.2499ZM14.1474 1.36354C13.6382 1.503 13.1733 1.77077 12.7972 2.14125C12.421 2.51173 12.1462 2.97252 11.999 3.47955C11.4416 5.47369 12.8267 7.29869 14.6877 7.48463C14.4423 7.69163 14.1679 7.86154 13.8732 7.98893C13.5775 8.12174 13.4513 8.47604 13.5537 8.78346L13.9404 9.56471C14.0525 9.90182 14.4299 10.0917 14.7568 9.95182C17.0224 8.98424 18.126 7.54518 18.126 4.79557V4.37486C18.1252 2.37447 16.2353 0.806895 14.1474 1.36354ZM15.0002 5.15611C14.8457 5.15611 14.6946 5.1103 14.5661 5.02445C14.4377 4.93861 14.3375 4.81659 14.2784 4.67384C14.2193 4.53108 14.2038 4.374 14.2339 4.22245C14.2641 4.0709 14.3385 3.9317 14.4477 3.82244C14.557 3.71318 14.6962 3.63877 14.8478 3.60863C14.9993 3.57848 15.1564 3.59395 15.2991 3.65308C15.4419 3.71221 15.5639 3.81235 15.6498 3.94083C15.7356 4.0693 15.7814 4.22035 15.7814 4.37486C15.7814 4.58206 15.6991 4.78078 15.5526 4.92729C15.4061 5.0738 15.2074 5.15611 15.0002 5.15611Z" fill="black"/>
</svg>
