<svg width="57" height="57" viewBox="0 0 57 57" fill="none" xmlns="http://www.w3.org/2000/svg">
<mask id="mask0_121_676" style="mask-type:luminance" maskUnits="userSpaceOnUse" x="0" y="0" width="57" height="57">
<path d="M56.5 0.200195H0.5V56.2002H56.5V0.200195Z" fill="white"/>
</mask>
<g mask="url(#mask0_121_676)">
<mask id="mask1_121_676" style="mask-type:luminance" maskUnits="userSpaceOnUse" x="0" y="0" width="57" height="57">
<path d="M56.5 0.200195H0.5V56.2002H56.5V0.200195Z" fill="white"/>
</mask>
<g mask="url(#mask1_121_676)">
<path d="M38.9996 23.125H6.97461V48.85H38.9996V23.125Z" fill="#634C9F"/>
<path d="M39.1748 30.4756H46.1748L54.0498 45.5256C54.9248 47.1006 53.6998 48.8506 52.1248 48.8506H38.2998" stroke="#1D1D1B" stroke-width="1.5" stroke-miterlimit="10" stroke-linecap="round" stroke-linejoin="round"/>
<path d="M14.8494 54.2754C17.1244 54.2754 19.0494 52.3504 19.0494 49.9004C19.0494 47.4504 17.1244 45.5254 14.8494 45.5254C12.5744 45.5254 10.6494 47.4504 10.6494 49.9004C10.6494 52.3504 12.5744 54.2754 14.8494 54.2754Z" stroke="#1D1D1B" stroke-width="1.5" stroke-miterlimit="10" stroke-linecap="round" stroke-linejoin="round"/>
<path d="M45.6492 54.2754C47.9242 54.2754 49.8492 52.3504 49.8492 49.9004C49.8492 47.4504 47.9242 45.5254 45.6492 45.5254C43.3742 45.5254 41.4492 47.4504 41.4492 49.9004C41.4492 52.3504 43.3742 54.2754 45.6492 54.2754Z" stroke="#1D1D1B" stroke-width="1.5" stroke-miterlimit="10" stroke-linecap="round" stroke-linejoin="round"/>
<path d="M5.22461 43.7754H18.3496" stroke="#1D1D1B" stroke-width="1.5" stroke-miterlimit="10" stroke-linecap="round" stroke-linejoin="round"/>
<path d="M2.59961 39.75H15.7246" stroke="#1D1D1B" stroke-width="1.5" stroke-miterlimit="10" stroke-linecap="round" stroke-linejoin="round"/>
<path d="M41.2742 27.8502C48.4492 27.8502 54.2242 22.0752 54.2242 14.9002C54.2242 7.72519 48.4492 1.9502 41.2742 1.9502C34.0992 1.9502 28.3242 7.72519 28.3242 14.9002C28.3242 21.9002 34.0992 27.8502 41.2742 27.8502Z" fill="#FFB709"/>
<path d="M35.6748 12.6252L40.7498 22.4252L47.9248 8.9502" stroke="#1D1D1B" stroke-width="1.5" stroke-miterlimit="10" stroke-linecap="round" stroke-linejoin="round"/>
</g>
</g>
</svg>
