<svg width="56" height="57" viewBox="0 0 56 57" fill="none" xmlns="http://www.w3.org/2000/svg">
<path d="M34.3004 38.8752C41.3004 38.8752 47.0754 33.1002 47.0754 26.1002C47.0754 19.1002 41.3004 13.3252 34.3004 13.3252C27.3004 13.3252 21.5254 19.1002 21.5254 26.1002C21.5254 33.1002 27.1254 38.8752 34.3004 38.8752Z" fill="#FFB709"/>
<path d="M25.7247 21.2002C26.5997 20.1502 26.9497 18.9252 26.9497 17.5252C26.9497 14.7252 25.0247 12.2752 22.3997 11.7502C22.5747 11.0502 22.7497 10.3502 22.7497 9.6502C22.7497 5.4502 19.2497 1.9502 14.8747 1.9502C10.6747 1.9502 7.17471 5.4502 7.17471 9.6502C7.17471 10.3502 7.34971 10.8752 7.34971 11.5752C4.89971 12.2752 2.97471 14.7252 2.97471 17.5252C2.97471 18.9252 3.49971 20.1502 4.19971 21.2002C2.79971 22.6002 1.39971 24.5252 1.74971 26.8002C2.09971 28.9002 11.0247 50.2502 11.0247 50.2502H18.7247C18.7247 50.2502 27.6497 28.9002 27.9997 26.8002C28.5247 24.5252 27.1247 22.6002 25.7247 21.2002Z" fill="#634C9F"/>
<path d="M14.875 10.7002V49.7252" stroke="#1D1D1B" stroke-width="1.5" stroke-miterlimit="10" stroke-linecap="round" stroke-linejoin="round"/>
<path d="M8.22461 27.6748L14.8746 35.1998" stroke="#1D1D1B" stroke-width="1.5" stroke-miterlimit="10" stroke-linecap="round" stroke-linejoin="round"/>
<path d="M21.7 27.6748L14.875 35.1998" stroke="#1D1D1B" stroke-width="1.5" stroke-miterlimit="10" stroke-linecap="round" stroke-linejoin="round"/>
<path d="M8.22461 16.6504L15.0496 24.3504" stroke="#1D1D1B" stroke-width="1.5" stroke-miterlimit="10" stroke-linecap="round" stroke-linejoin="round"/>
<path d="M21.7 16.6504L14.875 24.3504" stroke="#1D1D1B" stroke-width="1.5" stroke-miterlimit="10" stroke-linecap="round" stroke-linejoin="round"/>
<path d="M42.3496 38.1746C42.6996 39.3996 42.8746 40.6246 43.0496 41.6746H54.2496L49.6996 27.8496L40.5996 34.6746C41.2996 35.7246 41.8246 36.9496 42.3496 38.1746Z" fill="#634C9F"/>
<path d="M2.45039 51.2999C1.75039 49.3749 2.45039 47.2749 3.85039 46.3999L29.9254 30.9999C34.4754 28.7249 40.2504 32.0499 42.3504 38.1749C44.2754 44.2999 41.6504 50.4249 36.5754 51.2999L6.4754 54.4499C4.9004 54.6249 3.15039 53.2249 2.45039 51.2999Z" stroke="#1D1D1B" stroke-width="1.5" stroke-miterlimit="10" stroke-linecap="round" stroke-linejoin="round"/>
<path d="M29.5752 31.3496C29.7502 31.6996 33.4252 43.7746 33.4252 43.7746" stroke="#1D1D1B" stroke-width="1.5" stroke-miterlimit="10" stroke-linecap="round" stroke-linejoin="round"/>
<path d="M25.375 45.1748C25.55 45.5248 27.65 52.1748 27.65 52.1748" stroke="#1D1D1B" stroke-width="1.5" stroke-miterlimit="10" stroke-linecap="round" stroke-linejoin="round"/>
<path d="M17.8496 38.5254C18.0246 38.8754 20.1246 45.5254 20.1246 45.5254" stroke="#1D1D1B" stroke-width="1.5" stroke-miterlimit="10" stroke-linecap="round" stroke-linejoin="round"/>
<path d="M7.875 48.8496L9.45 53.9246" stroke="#1D1D1B" stroke-width="1.5" stroke-miterlimit="10" stroke-linecap="round" stroke-linejoin="round"/>
<path d="M38.8502 8.25L36.5752 16.825" stroke="#1D1D1B" stroke-width="1.5" stroke-miterlimit="10" stroke-linecap="round" stroke-linejoin="round"/>
<path d="M39.8998 16.65C39.3748 17 38.6748 17 37.9748 17C36.5748 17 35.1748 16.3 34.2998 15.25" stroke="#1D1D1B" stroke-width="1.5" stroke-miterlimit="10" stroke-linecap="round" stroke-linejoin="round"/>
</svg>
