<svg width="14" height="14" viewBox="0 0 14 14" fill="none" xmlns="http://www.w3.org/2000/svg">
<path d="M5.95312 1.09082L6.64687 0.39707C6.94062 0.10332 7.41563 0.10332 7.70625 0.39707L13.7812 6.46895C14.075 6.7627 14.075 7.2377 13.7812 7.52832L7.70625 13.6033C7.4125 13.8971 6.9375 13.8971 6.64687 13.6033L5.95312 12.9096C5.65625 12.6127 5.6625 12.1283 5.96562 11.8377L9.73125 8.2502H0.75C0.334375 8.2502 0 7.91582 0 7.5002V6.5002C0 6.08457 0.334375 5.7502 0.75 5.7502H9.73125L5.96562 2.1627C5.65937 1.87207 5.65312 1.3877 5.95312 1.09082Z" fill="white"/>
</svg>
